General
Complete name                  : Aa Ante Amalapuram- Maximum Official Song - Hazel Item Song 720p HD {ECS}.mp4
Format                         : MPEG-4
Format profile                 : Base Media
Codec ID                       : isom
File size                      : 24.9 MiB
Duration                       : 1mn 59s
Overall bit rate mode          : Variable
Overall bit rate               : 1 750 Kbps
Encoded date                   : UTC 2012-07-20 14:06:50
Tagged date                    : UTC 2012-07-20 14:06:50

Video
ID                             : 1
Format                         : AVC
Format/Info                    : Advanced Video Codec
Format profile                 : High@L4.1
Format settings, CABAC         : Yes
Format settings, ReFrames      : 3 frames
Codec ID                       : avc1
Codec ID/Info                  : Advanced Video Coding
Duration                       : 1mn 59s
Bit rate mode                  : Variable
Bit rate                       : 1 624 Kbps
Maximum bit rate               : 14.0 Mbps
Width                          : 1 280 pixels
Height                         : 544 pixels
Display aspect ratio           : 2.35:1
Frame rate mode                : Constant
Frame rate                     : 25.000 fps
Color space                    : YUV
Chroma subsampling             : 4:2:0
Bit depth                      : 8 bits
Scan type                      : Progressive
Bits/(Pixel*Frame)             : 0.093
Stream size                    : 23.1 MiB (93%)
Writing library                : x264 core 125 r2200 999b753

ID                             : 2
Format                         : AC-3
Format/Info                    : Audio Coding 3
Mode extension                 : CM (complete main)
Format settings, Endianness    : Big
Codec ID                       : ac-3
Duration                       : 1mn 59s
Bit rate mode                  : Constant
Bit rate                       : 128 Kbps
Channel(s)                     : 2 channels
Channel positions              : Front: L R
Sampling rate                  : 44.1 KHz
Bit depth                      : 16 bits
Compression mode               : Lossy
Stream size                    : 1.82 MiB (7%)
Encoded date                   : UTC 2012-07-20 14:06:51
Tagged date                    : UTC 2012-07-20 14:06:51


 
http://i1271.photobucket.com/albums/jj629/sameer_ecs/-AaAnteAmalapuram-MaximumOfficialSong-HazelItemSong720pHDECS_0mp4_thumbs_20120720_202352.jpg